{"accessors":[{"name":"Button_Button_Mesh-Mesh_positions","componentType":5126,"count":192,"min":[0.44503799080848694,1.9979699850082397,0.38491499423980713],"max":[0.5919690132141113,2.0807790756225586,0.5348020195960999],"type":"VEC3","bufferView":0,"byteOffset":0},{"name":"Button_Button_Mesh-Mesh_normals","componentType":5126,"count":192,"min":[-0.9807999730110168,-0.9889000058174133,-0.9699000120162964],"max":[0.9807999730110168,0.9889000058174133,0.9699000120162964],"type":"VEC3","bufferView":0,"byteOffset":23232},{"name":"Button_Button_Mesh-Mesh_texcoords","componentType":5126,"count":192,"min":[0,0],"max":[1,1],"type":"VEC2","bufferView":1,"byteOffset":0},{"name":"Button_Button_Mesh-Mesh_0_indices","componentType":5123,"count":360,"min":[0],"max":[191],"type":"SCALAR","bufferView":2,"byteOffset":0},{"name":"Joystick_Joystick_Mesh-Mesh_positions","componentType":5126,"count":1184,"min":[-0.5626729726791382,1.9979280233383179,0.4145219922065735],"max":[-0.424017995595932,2.283884048461914,0.5856469869613647],"type":"VEC3","bufferView":0,"byteOffset":2304},{"name":"Joystick_Joystick_Mesh-Mesh_normals","componentType":5126,"count":1184,"min":[-0.9807999730110168,-0.9977999925613403,-0.9789999723434448],"max":[0.9807999730110168,0.9977999925613403,0.9789999723434448],"type":"VEC3","bufferView":0,"byteOffset":25536},{"name":"Joystick_Joystick_Mesh-Mesh_texcoords","componentType":5126,"count":1184,"min":[0,0],"max":[1,1],"type":"VEC2","bufferView":1,"byteOffset":1536},{"name":"Joystick_Joystick_Mesh-Mesh_0_indices","componentType":5123,"count":1800,"min":[0],"max":[1183],"type":"SCALAR","bufferView":2,"byteOffset":720},{"name":"Cabinet_Cabinet_Mesh-Mesh_positions","componentType":5126,"count":560,"min":[-1.1183899641036987,-0.010513000190258026,-1.6283390522003174],"max":[1.1183899641036987,4.536506175994873,0.7621960043907166],"type":"VEC3","bufferView":0,"byteOffset":16512},{"name":"Cabinet_Cabinet_Mesh-Mesh_normals","componentType":5126,"count":560,"min":[-1,-1,-1],"max":[1,1,1],"type":"VEC3","bufferView":0,"byteOffset":39744},{"name":"Cabinet_Cabinet_Mesh-Mesh_texcoords","componentType":5126,"count":560,"min":[0.005160999950021505,0.008554999716579914],"max":[0.9659979939460754,0.9947389960289001],"type":"VEC2","bufferView":1,"byteOffset":11008},{"name":"Cabinet_Cabinet_Mesh-Mesh_0_indices","componentType":5123,"count":876,"min":[0],"max":[559],"type":"SCALAR","bufferView":2,"byteOffset":4320}],"asset":{"generator":"obj2gltf","version":"2.0"},"buffers":[{"name":"arcade-cabinet","byteLength":97488,"uri":"data:application/octet-stream;base64,"}],"bufferViews":[{"name":"bufferView_0","buffer":0,"byteLength":46464,"byteOffset":0,"byteStride":12,"target":34962},{"name":"bufferView_1","buffer":0,"byteLength":15488,"byteOffset":46464,"byteStride":8,"target":34962},{"name":"bufferView_2","buffer":0,"byteLength":6072,"byteOffset":61952,"target":34963},{"buffer":0,"byteOffset":68024,"byteLength":10351},{"buffer":0,"byteOffset":78375,"byteLength":8721},{"buffer":0,"byteOffset":87096,"byteLength":10390}],"images":[{"name":"Button-Texture","mimeType":"image/png","bufferView":3},{"name":"Joystick-Texture","mimeType":"image/png","bufferView":4},{"name":"Cabinet-Texture","mimeType":"image/png","bufferView":5}],"materials":[{"name":"Button_Material","pbrMetallicRoughness":{"baseColorTexture":{"index":0},"baseColorFactor":[1,1,1,1],"metallicFactor":0,"roughnessFactor":0.903921569},"emissiveFactor":[0,0,0],"alphaMode":"OPAQUE","doubleSided":false},{"name":"Joystick_Material","pbrMetallicRoughness":{"baseColorTexture":{"index":1},"baseColorFactor":[1,1,1,1],"metallicFactor":0,"roughnessFactor":0.903921569},"emissiveFactor":[0,0,0],"alphaMode":"OPAQUE","doubleSided":false},{"name":"Cabinet_Material","pbrMetallicRoughness":{"baseColorTexture":{"index":2},"baseColorFactor":[1,1,1,1],"metallicFactor":0,"roughnessFactor":0.903921569},"emissiveFactor":[0,0,0],"alphaMode":"OPAQUE","doubleSided":false}],"meshes":[{"name":"Button_Button_Mesh-Mesh","primitives":[{"attributes":{"POSITION":0,"NORMAL":1,"TEXCOORD_0":2},"indices":3,"material":0,"mode":4}]},{"name":"Joystick_Joystick_Mesh-Mesh","primitives":[{"attributes":{"POSITION":4,"NORMAL":5,"TEXCOORD_0":6},"indices":7,"material":1,"mode":4}]},{"name":"Cabinet_Cabinet_Mesh-Mesh","primitives":[{"attributes":{"POSITION":8,"NORMAL":9,"TEXCOORD_0":10},"indices":11,"material":2,"mode":4}]}],"nodes":[{"name":"Button_Button_Mesh","mesh":0},{"name":"Joystick_Joystick_Mesh","mesh":1},{"name":"Cabinet_Cabinet_Mesh","mesh":2}],"samplers":[{"magFilter":9729,"minFilter":9986,"wrapS":10497,"wrapT":10497}],"scene":0,"scenes":[{"nodes":[0,1,2]}],"textures":[{"name":"Button-Texture","sampler":0,"source":0},{"name":"Joystick-Texture","sampler":0,"source":1},{"name":"Cabinet-Texture","sampler":0,"source":2}]}
