{"accessors":[{"name":"Icosphere.001_Icosphere.010-Mesh_positions","componentType":5126,"count":66,"min":[-4.713205814361572,3.1216320991516113,-4.484302997589111],"max":[3.635283946990967,14.040473937988281,5.690619945526123],"type":"VEC3","bufferView":0,"byteOffset":0},{"name":"Icosphere.001_Icosphere.010-Mesh_normals","componentType":5126,"count":66,"min":[-0.9965000152587891,-0.9997000098228455,-0.998199999332428],"max":[0.9958000183105469,0.9997000098228455,0.998199999332428],"type":"VEC3","bufferView":0,"byteOffset":52008},{"name":"Icosphere.001_Icosphere.010-Mesh_0_indices","componentType":5123,"count":360,"min":[0],"max":[65],"type":"SCALAR","bufferView":1,"byteOffset":0},{"name":"Cylinder_Cylinder.005-Mesh_positions","componentType":5126,"count":236,"min":[-1.634300947189331,0.7607309818267822,-0.8420979976654053],"max":[0.8460670113563538,6.03260612487793,1.7234870195388794],"type":"VEC3","bufferView":0,"byteOffset":792},{"name":"Cylinder_Cylinder.005-Mesh_normals","componentType":5126,"count":236,"min":[-0.9829999804496765,-1,-0.9710000157356262],"max":[0.9807000160217285,0.9987000226974487,0.9686999917030334],"type":"VEC3","bufferView":0,"byteOffset":52800},{"name":"Cylinder_Cylinder.005-Mesh_0_indices","componentType":5123,"count":384,"min":[0],"max":[235],"type":"SCALAR","bufferView":1,"byteOffset":720},{"name":"Plane-Mesh_positions","componentType":5126,"count":4032,"min":[-5.828269004821777,-0.6707130074501038,-5.5051350593566895],"max":[5.847179889678955,1.112684965133667,6.147984027862549],"type":"VEC3","bufferView":0,"byteOffset":3624},{"name":"Plane-Mesh_normals","componentType":5126,"count":4032,"min":[-0.9965000152587891,-1,-0.9965999722480774],"max":[0.9965000152587891,1,0.9965999722480774],"type":"VEC3","bufferView":0,"byteOffset":55632},{"name":"Plane-Mesh_0_indices","componentType":5123,"count":3456,"min":[0],"max":[1791],"type":"SCALAR","bufferView":1,"byteOffset":1488},{"name":"Plane-Mesh_1_indices","componentType":5123,"count":3456,"min":[1312],"max":[4031],"type":"SCALAR","bufferView":1,"byteOffset":8400}],"asset":{"generator":"obj2gltf","version":"2.0"},"buffers":[{"name":"tree","byteLength":119328,"uri":"data:application/octet-stream;base64,"}],"bufferViews":[{"name":"bufferView_0","buffer":0,"byteLength":104016,"byteOffset":0,"byteStride":12,"target":34962},{"name":"bufferView_1","buffer":0,"byteLength":15312,"byteOffset":104016,"target":34963}],"materials":[{"name":"green","pbrMetallicRoughness":{"baseColorFactor":[0.03067,0.37575,0,1],"metallicFactor":0,"roughnessFactor":0.903921569},"emissiveFactor":[0,0,0],"alphaMode":"OPAQUE","doubleSided":false},{"name":"Material.004","pbrMetallicRoughness":{"baseColorFactor":[0.220258,0.083015,0,1],"metallicFactor":0,"roughnessFactor":0.903921569},"emissiveFactor":[0,0,0],"alphaMode":"OPAQUE","doubleSided":false},{"name":"grass","pbrMetallicRoughness":{"baseColorFactor":[0.023125,0.166333,0,1],"metallicFactor":0,"roughnessFactor":0.903921569},"emissiveFactor":[0,0,0],"alphaMode":"OPAQUE","doubleSided":false},{"name":"brown","pbrMetallicRoughness":{"baseColorFactor":[0.024849,0.006896,0,1],"metallicFactor":0,"roughnessFactor":0.903921569},"emissiveFactor":[0,0,0],"alphaMode":"OPAQUE","doubleSided":false}],"meshes":[{"name":"Icosphere.001_Icosphere.010-Mesh","primitives":[{"attributes":{"POSITION":0,"NORMAL":1},"indices":2,"material":0,"mode":4}]},{"name":"Cylinder_Cylinder.005-Mesh","primitives":[{"attributes":{"POSITION":3,"NORMAL":4},"indices":5,"material":1,"mode":4}]},{"name":"Plane-Mesh","primitives":[{"attributes":{"POSITION":6,"NORMAL":7},"indices":8,"material":2,"mode":4},{"attributes":{"POSITION":6,"NORMAL":7},"indices":9,"material":3,"mode":4}]}],"nodes":[{"name":"Icosphere.001_Icosphere.010","mesh":0},{"name":"Cylinder_Cylinder.005","mesh":1},{"name":"Plane","mesh":2}],"scene":0,"scenes":[{"nodes":[0,1,2]}]}
